<mxfile host="app.diagrams.net" modified="2023-03-03T11:09:01.510Z" agent="5.0 (Windows NT 10.0; Win64; x64) AppleWebKit/537.36 (KHTML, like Gecko) Chrome/110.0.0.0 Safari/537.36 Edg/110.0.1587.57" etag="uzlojs1WYteJ3l-5BzVH" version="20.8.23" type="github">
  <diagram name="Seite-1" id="G1-7pPrYFi2cU-2SbL1B">
    <mxGraphModel dx="2212" dy="1274" grid="1" gridSize="10" guides="1" tooltips="1" connect="1" arrows="1" fold="1" page="1" pageScale="1" pageWidth="827" pageHeight="1169" math="0" shadow="0">
      <root>
        <mxCell id="0" />
        <mxCell id="1" parent="0" />
        <mxCell id="VT8LmwfQIZ_gyrOGqI7q-3" value="Vertical Container" style="swimlane;whiteSpace=wrap;html=1;" vertex="1" parent="1">
          <mxGeometry x="300" y="350" width="892" height="736.5" as="geometry" />
        </mxCell>
        <mxCell id="VT8LmwfQIZ_gyrOGqI7q-5" value="" style="rounded=0;whiteSpace=wrap;html=1;" vertex="1" parent="VT8LmwfQIZ_gyrOGqI7q-3">
          <mxGeometry x="400" y="370" width="210" height="250" as="geometry" />
        </mxCell>
        <mxCell id="VT8LmwfQIZ_gyrOGqI7q-6" value="SAP Compliance Management" style="text;html=1;strokeColor=none;fillColor=none;align=center;verticalAlign=middle;whiteSpace=wrap;rounded=0;" vertex="1" parent="VT8LmwfQIZ_gyrOGqI7q-3">
          <mxGeometry x="410" y="340" width="190" height="30" as="geometry" />
        </mxCell>
        <mxCell id="VT8LmwfQIZ_gyrOGqI7q-7" value="Embargo Check" style="rounded=0;whiteSpace=wrap;html=1;" vertex="1" parent="VT8LmwfQIZ_gyrOGqI7q-3">
          <mxGeometry x="440" y="390" width="120" height="60" as="geometry" />
        </mxCell>
        <mxCell id="VT8LmwfQIZ_gyrOGqI7q-8" value="Sanctioned Party List Screening" style="rounded=0;whiteSpace=wrap;html=1;" vertex="1" parent="VT8LmwfQIZ_gyrOGqI7q-3">
          <mxGeometry x="440" y="460" width="120" height="60" as="geometry" />
        </mxCell>
        <mxCell id="VT8LmwfQIZ_gyrOGqI7q-9" value="Legal Control" style="rounded=0;whiteSpace=wrap;html=1;" vertex="1" parent="VT8LmwfQIZ_gyrOGqI7q-3">
          <mxGeometry x="440" y="530" width="120" height="60" as="geometry" />
        </mxCell>
        <mxCell id="VT8LmwfQIZ_gyrOGqI7q-15" value="" style="shape=curlyBracket;whiteSpace=wrap;html=1;rounded=1;labelPosition=left;verticalLabelPosition=middle;align=right;verticalAlign=middle;" vertex="1" parent="VT8LmwfQIZ_gyrOGqI7q-3">
          <mxGeometry x="130" y="110" width="20" height="110" as="geometry" />
        </mxCell>
        <mxCell id="VT8LmwfQIZ_gyrOGqI7q-34" value="BP" style="shape=cylinder3;whiteSpace=wrap;html=1;boundedLbl=1;backgroundOutline=1;size=15;" vertex="1" parent="VT8LmwfQIZ_gyrOGqI7q-3">
          <mxGeometry x="160" y="183.5" width="60" height="55" as="geometry" />
        </mxCell>
        <mxCell id="VT8LmwfQIZ_gyrOGqI7q-35" value="Material" style="shape=cylinder3;whiteSpace=wrap;html=1;boundedLbl=1;backgroundOutline=1;size=15;" vertex="1" parent="VT8LmwfQIZ_gyrOGqI7q-3">
          <mxGeometry x="160" y="156.5" width="60" height="50" as="geometry" />
        </mxCell>
        <mxCell id="VT8LmwfQIZ_gyrOGqI7q-36" value="BOM" style="shape=cylinder3;whiteSpace=wrap;html=1;boundedLbl=1;backgroundOutline=1;size=15;" vertex="1" parent="VT8LmwfQIZ_gyrOGqI7q-3">
          <mxGeometry x="160" y="126.5" width="60" height="50" as="geometry" />
        </mxCell>
        <mxCell id="VT8LmwfQIZ_gyrOGqI7q-37" value="HR" style="shape=cylinder3;whiteSpace=wrap;html=1;boundedLbl=1;backgroundOutline=1;size=15;" vertex="1" parent="VT8LmwfQIZ_gyrOGqI7q-3">
          <mxGeometry x="160" y="91.5" width="60" height="50" as="geometry" />
        </mxCell>
        <mxCell id="VT8LmwfQIZ_gyrOGqI7q-40" value="Tarifierung" style="rounded=0;whiteSpace=wrap;html=1;" vertex="1" parent="VT8LmwfQIZ_gyrOGqI7q-3">
          <mxGeometry x="280" y="177" width="120" height="20" as="geometry" />
        </mxCell>
        <mxCell id="VT8LmwfQIZ_gyrOGqI7q-41" value="Klassifizierung" style="rounded=0;whiteSpace=wrap;html=1;" vertex="1" parent="VT8LmwfQIZ_gyrOGqI7q-3">
          <mxGeometry x="280" y="197" width="120" height="20" as="geometry" />
        </mxCell>
        <mxCell id="VT8LmwfQIZ_gyrOGqI7q-43" value="" style="endArrow=classic;html=1;rounded=0;exitX=1;exitY=0.5;exitDx=0;exitDy=0;exitPerimeter=0;entryX=1;entryY=0.5;entryDx=0;entryDy=0;" edge="1" parent="VT8LmwfQIZ_gyrOGqI7q-3" source="VT8LmwfQIZ_gyrOGqI7q-34" target="VT8LmwfQIZ_gyrOGqI7q-8">
          <mxGeometry width="50" height="50" relative="1" as="geometry">
            <mxPoint x="300" y="370" as="sourcePoint" />
            <mxPoint x="350" y="320" as="targetPoint" />
            <Array as="points">
              <mxPoint x="270" y="260" />
              <mxPoint x="640" y="260" />
              <mxPoint x="640" y="490" />
            </Array>
          </mxGeometry>
        </mxCell>
        <mxCell id="VT8LmwfQIZ_gyrOGqI7q-45" value="Export Document" style="shape=note;whiteSpace=wrap;html=1;backgroundOutline=1;darkOpacity=0.05;" vertex="1" parent="VT8LmwfQIZ_gyrOGqI7q-3">
          <mxGeometry x="190" y="355" width="80" height="100" as="geometry" />
        </mxCell>
        <mxCell id="VT8LmwfQIZ_gyrOGqI7q-46" value="" style="endArrow=classic;html=1;rounded=0;exitX=0;exitY=0.5;exitDx=0;exitDy=0;entryX=0;entryY=0;entryDx=80;entryDy=65;entryPerimeter=0;" edge="1" parent="VT8LmwfQIZ_gyrOGqI7q-3" source="VT8LmwfQIZ_gyrOGqI7q-7" target="VT8LmwfQIZ_gyrOGqI7q-45">
          <mxGeometry width="50" height="50" relative="1" as="geometry">
            <mxPoint x="300" y="360" as="sourcePoint" />
            <mxPoint x="350" y="310" as="targetPoint" />
          </mxGeometry>
        </mxCell>
        <mxCell id="VT8LmwfQIZ_gyrOGqI7q-47" value="" style="endArrow=classic;html=1;rounded=0;exitX=0;exitY=0.5;exitDx=0;exitDy=0;entryX=0;entryY=0;entryDx=80;entryDy=65;entryPerimeter=0;" edge="1" parent="VT8LmwfQIZ_gyrOGqI7q-3" source="VT8LmwfQIZ_gyrOGqI7q-8" target="VT8LmwfQIZ_gyrOGqI7q-45">
          <mxGeometry width="50" height="50" relative="1" as="geometry">
            <mxPoint x="300" y="360" as="sourcePoint" />
            <mxPoint x="350" y="310" as="targetPoint" />
            <Array as="points">
              <mxPoint x="360" y="490" />
              <mxPoint x="360" y="420" />
            </Array>
          </mxGeometry>
        </mxCell>
        <mxCell id="VT8LmwfQIZ_gyrOGqI7q-48" value="" style="endArrow=classic;html=1;rounded=0;entryX=0;entryY=0;entryDx=80;entryDy=65;entryPerimeter=0;exitX=0;exitY=0.5;exitDx=0;exitDy=0;" edge="1" parent="VT8LmwfQIZ_gyrOGqI7q-3" source="VT8LmwfQIZ_gyrOGqI7q-9" target="VT8LmwfQIZ_gyrOGqI7q-45">
          <mxGeometry width="50" height="50" relative="1" as="geometry">
            <mxPoint x="300" y="360" as="sourcePoint" />
            <mxPoint x="350" y="310" as="targetPoint" />
            <Array as="points">
              <mxPoint x="360" y="560" />
              <mxPoint x="360" y="420" />
            </Array>
          </mxGeometry>
        </mxCell>
        <mxCell id="VT8LmwfQIZ_gyrOGqI7q-49" value="Export Declaration" style="shape=note;whiteSpace=wrap;html=1;backgroundOutline=1;darkOpacity=0.05;" vertex="1" parent="VT8LmwfQIZ_gyrOGqI7q-3">
          <mxGeometry x="190" y="510" width="80" height="100" as="geometry" />
        </mxCell>
        <mxCell id="VT8LmwfQIZ_gyrOGqI7q-4" value="Vertical Container" style="swimlane;whiteSpace=wrap;html=1;" vertex="1" parent="1">
          <mxGeometry x="-400" y="360" width="600" height="680" as="geometry" />
        </mxCell>
        <mxCell id="VT8LmwfQIZ_gyrOGqI7q-10" value="BP" style="shape=cylinder3;whiteSpace=wrap;html=1;boundedLbl=1;backgroundOutline=1;size=15;" vertex="1" parent="VT8LmwfQIZ_gyrOGqI7q-4">
          <mxGeometry x="30" y="197" width="60" height="55" as="geometry" />
        </mxCell>
        <mxCell id="VT8LmwfQIZ_gyrOGqI7q-11" value="Material" style="shape=cylinder3;whiteSpace=wrap;html=1;boundedLbl=1;backgroundOutline=1;size=15;" vertex="1" parent="VT8LmwfQIZ_gyrOGqI7q-4">
          <mxGeometry x="30" y="170" width="60" height="50" as="geometry" />
        </mxCell>
        <mxCell id="VT8LmwfQIZ_gyrOGqI7q-12" value="BOM" style="shape=cylinder3;whiteSpace=wrap;html=1;boundedLbl=1;backgroundOutline=1;size=15;" vertex="1" parent="VT8LmwfQIZ_gyrOGqI7q-4">
          <mxGeometry x="30" y="140" width="60" height="50" as="geometry" />
        </mxCell>
        <mxCell id="VT8LmwfQIZ_gyrOGqI7q-13" value="HR" style="shape=cylinder3;whiteSpace=wrap;html=1;boundedLbl=1;backgroundOutline=1;size=15;" vertex="1" parent="VT8LmwfQIZ_gyrOGqI7q-4">
          <mxGeometry x="30" y="105" width="60" height="50" as="geometry" />
        </mxCell>
        <mxCell id="VT8LmwfQIZ_gyrOGqI7q-14" value="" style="shape=curlyBracket;whiteSpace=wrap;html=1;rounded=1;flipH=1;labelPosition=right;verticalLabelPosition=middle;align=left;verticalAlign=middle;" vertex="1" parent="VT8LmwfQIZ_gyrOGqI7q-4">
          <mxGeometry x="110" y="110" width="20" height="110" as="geometry" />
        </mxCell>
        <mxCell id="VT8LmwfQIZ_gyrOGqI7q-33" value="" style="endArrow=classic;startArrow=classic;html=1;rounded=0;exitX=0.1;exitY=0.5;exitDx=0;exitDy=0;exitPerimeter=0;" edge="1" parent="1" source="VT8LmwfQIZ_gyrOGqI7q-14" target="VT8LmwfQIZ_gyrOGqI7q-15">
          <mxGeometry width="50" height="50" relative="1" as="geometry">
            <mxPoint x="80" y="450" as="sourcePoint" />
            <mxPoint x="130" y="400" as="targetPoint" />
          </mxGeometry>
        </mxCell>
        <mxCell id="VT8LmwfQIZ_gyrOGqI7q-39" value="Master Data" style="rounded=0;whiteSpace=wrap;html=1;" vertex="1" parent="1">
          <mxGeometry x="580" y="507" width="120" height="20" as="geometry" />
        </mxCell>
        <mxCell id="VT8LmwfQIZ_gyrOGqI7q-42" value="" style="endArrow=classic;startArrow=classic;html=1;rounded=0;exitX=1;exitY=0;exitDx=0;exitDy=30;exitPerimeter=0;" edge="1" parent="1" source="VT8LmwfQIZ_gyrOGqI7q-35">
          <mxGeometry width="50" height="50" relative="1" as="geometry">
            <mxPoint x="600" y="590" as="sourcePoint" />
            <mxPoint x="580" y="537" as="targetPoint" />
          </mxGeometry>
        </mxCell>
        <mxCell id="VT8LmwfQIZ_gyrOGqI7q-52" value="Seeburger" style="shape=cube;whiteSpace=wrap;html=1;boundedLbl=1;backgroundOutline=1;darkOpacity=0.05;darkOpacity2=0.1;" vertex="1" parent="1">
          <mxGeometry x="670" y="1160" width="220" height="170" as="geometry" />
        </mxCell>
        <mxCell id="VT8LmwfQIZ_gyrOGqI7q-53" value="XML" style="rounded=0;whiteSpace=wrap;html=1;" vertex="1" parent="1">
          <mxGeometry x="870" y="1265" width="50" height="40" as="geometry" />
        </mxCell>
        <mxCell id="VT8LmwfQIZ_gyrOGqI7q-54" value="IDoc" style="rounded=0;whiteSpace=wrap;html=1;" vertex="1" parent="1">
          <mxGeometry x="650" y="1225" width="50" height="40" as="geometry" />
        </mxCell>
        <mxCell id="VT8LmwfQIZ_gyrOGqI7q-55" value="Zoll" style="shape=cube;whiteSpace=wrap;html=1;boundedLbl=1;backgroundOutline=1;darkOpacity=0.05;darkOpacity2=0.1;" vertex="1" parent="1">
          <mxGeometry x="1021" y="1200" width="220" height="170" as="geometry" />
        </mxCell>
        <mxCell id="VT8LmwfQIZ_gyrOGqI7q-56" value="" style="endArrow=classic;startArrow=classic;html=1;rounded=0;exitX=1;exitY=0.25;exitDx=0;exitDy=0;entryX=0;entryY=0;entryDx=0;entryDy=75;entryPerimeter=0;" edge="1" parent="1" source="VT8LmwfQIZ_gyrOGqI7q-53" target="VT8LmwfQIZ_gyrOGqI7q-55">
          <mxGeometry width="50" height="50" relative="1" as="geometry">
            <mxPoint x="660" y="1020" as="sourcePoint" />
            <mxPoint x="710" y="970" as="targetPoint" />
          </mxGeometry>
        </mxCell>
      </root>
    </mxGraphModel>
  </diagram>
</mxfile>
